<?xml version="1.0" encoding="utf-8"?>
<!-- Generator: Adobe Illustrator 25.2.3, SVG Export Plug-In . SVG Version: 6.00 Build 0)  -->
<svg version="1.1" id="레이어_1" xmlns="http://www.w3.org/2000/svg" xmlns:xlink="http://www.w3.org/1999/xlink" x="0px"
	 y="0px" viewBox="0 0 400 250" style="enable-background:new 0 0 400 250;" xml:space="preserve">
<style type="text/css">
	.st0{fill:#F9F9F9;}
	.st1{font-family:'HarlowSolid';}
	.st2{font-size:75px;}
	.st3{fill:#7BB1FF;}
	.st4{fill:#FF7D8A;}
	.st5{fill:#F6FCA4;}
	.st6{fill:#9FFFBA;}
	.st7{fill:#FFFFFF;}
</style>
<text transform="matrix(1 0 0 1 12.7179 199.0359)" class="st0 st1 st2">Yaang Star</text>
<path class="st3" d="M200,148L200,148c-7.73,0-14-6.27-14-14V24c0-7.73,6.27-14,14-14h0c7.73,0,14,6.27,14,14v110
	C214,141.73,207.73,148,200,148z"/>
<path class="st4" d="M248.79,127.79L248.79,127.79c-5.47,5.47-14.33,5.47-19.8,0l-77.78-77.78c-5.47-5.47-5.47-14.33,0-19.8l0,0
	c5.47-5.47,14.33-5.47,19.8,0l77.78,77.78C254.26,113.46,254.26,122.32,248.79,127.79z"/>
<path class="st5" d="M269,79L269,79c0,7.73-6.27,14-14,14H145c-7.73,0-14-6.27-14-14v0c0-7.73,6.27-14,14-14h110
	C262.73,65,269,71.27,269,79z"/>
<path class="st6" d="M151.21,127.79L151.21,127.79c-5.47-5.47-5.47-14.33,0-19.8l77.78-77.78c5.47-5.47,14.33-5.47,19.8,0l0,0
	c5.47,5.47,5.47,14.33,0,19.8l-77.78,77.78C165.54,133.26,156.68,133.26,151.21,127.79z"/>
<path class="st7" d="M207.13,101.1l-14.91,0.12c-3.12,0.02-6.02-1.62-7.6-4.31l-7.56-12.86c-1.58-2.69-1.61-6.02-0.07-8.74
	l7.35-12.97c1.54-2.72,4.41-4.41,7.54-4.43l14.91-0.12c3.12-0.02,6.02,1.62,7.6,4.31l7.56,12.86c1.58,2.69,1.61,6.02,0.07,8.74
	l-7.35,12.97C213.12,99.38,210.25,101.07,207.13,101.1z"/>
</svg>
